<?xml version="1.0" encoding="utf-8"?>
<!-- Generator: Adobe Illustrator 19.2.1, SVG Export Plug-In . SVG Version: 6.00 Build 0)  -->
<svg version="1.1" id="layer" xmlns="http://www.w3.org/2000/svg" xmlns:xlink="http://www.w3.org/1999/xlink" x="0px" y="0px"
	 viewBox="0 0 652 652" style="enable-background:new 0 0 652 652;" xml:space="preserve">
<style type="text/css">
	.st0{fill:#0070AD;}
</style>
<g>
	<path class="st0" d="M49.6,365.5L39,385.7c1.5,0.1,2.7,0.1,4,0.1h4c1.5,0,2.6,0,4.1-0.1L49.6,365.5z M59,403.4
		c-2.4,0-4,0.1-6.4,0.1l-0.4-0.4c-0.2-2.7-0.2-4.7-0.5-7.4l-0.4-5.2c-1.5-0.1-4.4-0.1-5.9-0.1h-3.2c-1.6,0-3.1,0-5.7,0.1l-2.3,4.5
		c-1.4,2.7-2.4,4.7-3.7,7.4l-0.2,0.5l-0.5,0.4c-2.3,0-3.9,0-6.2,0.1l-0.2-0.5c1.1-2,17.1-30.4,22.7-41.3l0.5-0.2
		c3.1-0.1,6.1-0.2,8.3-0.2l0.4,0.3c0.2,5,2.4,27.5,4.1,41.6L59,403.4z"/>
	<path class="st0" d="M88.1,377c-0.5-0.1-1.5-0.2-2.7-0.2c-8.1,0-12.1,3.5-14.2,8c-0.4,0.9-1.5,3.5-1.5,6.4c0,4.4,2.4,7.9,7.4,7.9
		c1.4,0,5.2-1.1,6.8-3L88.1,377z M88.3,403.3c-2.1,0-3.5,0.1-5.6,0.2l-0.2-0.4l0.5-2.3c-1.9,1.4-4.4,3-8.6,3
		c-7.1,0-11.2-5.3-11.2-11.9c0-3.3,1.1-7.6,3.2-10.8c5-7.9,12.8-8.9,18.8-8.9c1.5,0,2.6,0.1,4,0.2c2.1-9.7,2.5-11.8,2.9-14.7
		l0.5-0.4c2.4-0.4,4-0.7,6.4-1.1l0.3,0.4c-2.7,10.1-9,37.8-10.5,46.4L88.3,403.3z"/>
	<path class="st0" d="M110,403.4c-2.6,0.1-4.3,0.1-6.9,0.2l-0.5-0.4c-0.4-5.5-2.7-23.8-3.4-30.1l0.4-0.4c2.3,0,3.9-0.1,6.1-0.3
		l0.4,0.4c0.2,3.4,0.4,5.8,0.6,9.2l1.4,16.6c10-19.5,11.4-22,13.1-25.7l0.5-0.2h2.3c1.2,0,2,0,3.2-0.1l0.3,0.4
		c-1.8,3.1-4,6.8-5.9,10.1l-5,9c-2.1,3.8-4,7.1-6.1,11.1L110,403.4z"/>
	<path class="st0" d="M139.3,399.1c1.8,0,4.8-0.8,6.9-3c1.5-6.1,2.7-12.3,4.3-19.1c-0.7,0-1.6-0.1-2.6-0.1c-5.7,0-11.5,1.8-14.4,8.9
		c-0.4,0.8-1.3,3.2-1.3,6C132.2,396,134.7,399.1,139.3,399.1 M150.8,403.4h-1.5c-1.5,0-2.6,0.1-4,0.1l-0.3-0.4l0.4-2.4
		c-2.8,2.3-5.8,3-8.7,3c-7,0-11-5.2-11-11.6c0-4.4,1.9-8.5,2.8-10.1c4.9-8.7,13.7-9.7,20-9.7c2.8,0,8.9,0.1,8.9,0.1l0.3,0.4
		c-4.8,21-5.6,24.4-6.4,30.1L150.8,403.4z"/>
	<path class="st0" d="M185.1,403.4c-2.3,0-3.8,0.1-6.1,0.2l-0.2-0.4c0.8-4,1.7-6.7,2.5-10.6l1.4-6.8c0.2-0.9,0.7-2.8,0.7-4.4
		c0-4.4-3.9-4.6-5.1-4.6c-3.6,0-6.5,2.1-7.8,3.2c-1.7,7.7-3.4,15.3-4.8,23.1l-0.4,0.4c-2.3,0-3.8,0.1-6.1,0.2l-0.3-0.4
		c2-7.8,5.7-24.4,6.2-29.7l0.4-0.4c2.3-0.3,4-0.6,6.3-1.1l0.3,0.4l-0.8,3c4.3-3.3,8.6-3.6,10-3.6c1.8,0,8.6,0.3,8.6,7.9
		c0,2-0.8,5.9-2,11.5l-0.9,4.2c-0.6,2.9-1.1,4.8-1.5,7.7L185.1,403.4z"/>
	<path class="st0" d="M215.4,402.5c-2.1,1.2-5.6,1.7-7.7,1.7c-7.7,0-13-5.8-13-13.3c0-4.9,2.1-12.6,8.7-16.6
		c3.4-2.1,7.1-2.4,8.7-2.4c4.2,0,7.4,1,9.2,2.4l0.2,0.4c-0.6,1.7-1,3-1.5,4.7l-0.6,0.2c-1-1.6-3.6-3-6.7-3
		c-7.4,0-11.5,7.9-11.5,13.8c0,7,5.4,9,8.3,9c1,0,4.1-0.1,7.3-2.9l0.5,0.2c-0.6,2-1,3.3-1.5,5.4L215.4,402.5z"/>
	<path class="st0" d="M235.1,364.2c-2.3,0.3-3.9,0.5-6.2,0.8l-0.4-0.5c0.5-2,0.8-3.4,1.2-5.5l0.5-0.4c2.3-0.3,3.9-0.5,6.2-0.8
		l0.5,0.4c-0.5,2-0.9,3.5-1.4,5.5L235.1,364.2z M226.6,403.4c-2.3,0-4,0.1-6.3,0.2l-0.3-0.4c1.9-6.9,6.1-26.5,6.4-29.7l0.4-0.4
		c2.4-0.3,4.1-0.5,6.5-0.9l0.3,0.4c-0.3-0.1-5.2,22.6-6.6,30.6L226.6,403.4z"/>
	<path class="st0" d="M261,403.4c-2.3,0-3.8,0.1-6.1,0.2l-0.2-0.4c0.8-4,1.7-6.7,2.5-10.6l1.4-6.8c0.2-0.9,0.6-2.8,0.6-4.4
		c0-4.4-3.9-4.6-5.1-4.6c-3.6,0-6.5,2.1-7.8,3.2c-1.7,7.7-3.4,15.3-4.8,23.1l-0.4,0.4c-2.3,0-3.8,0.1-6.1,0.2l-0.3-0.4
		c2-7.8,5.7-24.4,6.2-29.7l0.4-0.4c2.3-0.3,4-0.6,6.3-1.1l0.3,0.4l-0.8,3c4.3-3.3,8.6-3.6,10-3.6c1.8,0,8.6,0.3,8.6,7.9
		c0,2-0.8,5.9-2,11.5l-0.9,4.2c-0.6,2.9-1.1,4.8-1.5,7.7L261,403.4z"/>
	<path class="st0" d="M295.2,377.1c0,0-1.8-0.1-2.3-0.1c-5.4,0-11.1,1-14.4,7.9c-1.4,3.1-1.6,5.5-1.6,6.8c0,6.2,4,7.6,7,7.6
		c3.3,0,5.7-1.7,7-2.9L295.2,377.1z M302.5,372.9c-1.7,6.7-3.2,12.9-4.6,19.6l-1.7,7.8c-2.1,9.9-3.8,18.2-16.8,18.2
		c-3.6,0-8.9-0.8-12.2-4.5v-0.5c0.9-1.4,1.5-2.4,2.4-3.8h0.5c1.6,2.1,4.6,4.2,9,4.2c8.9,0,9.6-8.2,10.2-10.2l0.6-2.4
		c-3.9,2.7-7.4,2.8-8.7,2.8c-7,0-10.7-5.4-10.7-11.5c0-1.5,0.2-6.5,3.4-11.4c5.6-8.6,14.5-8.6,21.3-8.6c3,0,7.1-0.1,7.1-0.1
		L302.5,372.9z"/>
	<path class="st0" d="M335.4,403.4c-2.3,0-3.9,0.1-6.3,0.1l-0.3-0.4c1.4-5.8,8.1-33.5,8.6-36.8c-6.5,0.1-9.4,0.2-12.2,0.2l-0.3-0.4
		c0.5-1.7,0.9-2.9,1.3-4.6l0.5-0.3c2.7,0.1,7.1,0.1,10.6,0.1c3.4,0,15.6-0.1,19.2-0.2l0.3,0.3c-0.5,1.6-0.8,2.9-1.3,4.6l-0.4,0.3
		c-2.4-0.2-5.9-0.2-11.1-0.2c-1.2,4.1-1.7,7-2.6,11.2l-3,13.6c-0.9,4-1.7,7.8-2.5,12L335.4,403.4z"/>
	<path class="st0" d="M370.7,384.5c0.2-1.4,0.3-2,0.3-2.6c-0.1-5.4-4.6-5.8-6.1-5.8c-6.9,0-9.2,6.3-9.8,8.5
		C355.1,384.5,366.9,384.5,370.7,384.5 M371.5,401.8c-2,1.2-5.1,2.4-9.7,2.4c-10.2,0-13.8-6.1-13.8-12.9c0-10.4,6.4-19.4,16.7-19.4
		c7,0,12,3.2,12,11.1c0,2.4-0.5,4.5-0.7,5.4l-0.4,0.3c-3.1,0-8.7-0.1-13.9-0.1c-2.7,0-4.6,0-7.3,0.1c-0.1,0.4-0.2,1.4-0.2,2.6
		c0,7.8,6.8,8,8.9,8c4.9,0,7.5-1.9,9.8-3.6l0.5,0.3c-0.6,2-1.1,3.3-1.5,5.3L371.5,401.8z"/>
	<path class="st0" d="M400.5,402.5c-2.1,1.2-5.6,1.7-7.7,1.7c-7.7,0-13-5.8-13-13.3c0-4.9,2.1-12.6,8.7-16.6
		c3.5-2.1,7.1-2.4,8.7-2.4c4.2,0,7.4,1,9.2,2.4l0.2,0.4c-0.7,1.7-1,3-1.5,4.7l-0.6,0.2c-1-1.6-3.6-3-6.7-3
		c-7.4,0-11.5,7.9-11.5,13.8c0,7,5.4,9,8.3,9c1,0,4.1-0.1,7.2-2.9l0.5,0.2c-0.6,2-1,3.3-1.5,5.4L400.5,402.5z"/>
	<path class="st0" d="M431.5,403.4c-2.3,0-3.9,0.1-6.1,0.1l-0.3-0.4c0.5-2.1,1.2-4.7,1.7-6.8l1.7-7.5c0.4-1.6,1.4-6.2,1.4-7.8
		c0-4.2-3.7-4.3-4.8-4.3c-3.7,0-7.2,2.4-8.2,3.3l-2.4,10.6c-1,4.2-1.7,8.1-2.5,12.4l-0.4,0.4c-2.2,0-3.8,0.1-6,0.1l-0.4-0.4
		c0.8-3.8,9-36.6,9.9-45.6l0.5-0.4c2.4-0.4,4.1-0.6,6.5-1.1l0.3,0.4c-1.7,6.2-3,12.5-4.5,18.8c1.8-1.2,5.4-3.5,10.3-3.5
		c1.5,0,8.2,0.4,8.2,7.5c0,2.6-0.6,5.3-1.1,7.5l-1.6,7.2c-0.6,3-1.2,6.1-1.8,9L431.5,403.4z"/>
	<path class="st0" d="M465.9,403.4c-2.3,0-3.8,0.1-6.1,0.2l-0.2-0.4c0.8-4,1.7-6.7,2.5-10.6l1.4-6.8c0.2-0.9,0.7-2.8,0.7-4.4
		c0-4.4-3.9-4.6-5.1-4.6c-3.6,0-6.5,2.1-7.8,3.2c-1.7,7.7-3.4,15.3-4.8,23.1l-0.4,0.4c-2.3,0-3.8,0.1-6.1,0.2l-0.3-0.4
		c2-7.8,5.7-24.4,6.2-29.7l0.4-0.4c2.3-0.3,4-0.6,6.3-1.1l0.3,0.4l-0.8,3c4.3-3.3,8.6-3.6,10-3.6c1.8,0,8.6,0.3,8.6,7.9
		c0,2-0.8,5.9-2,11.5l-0.9,4.2c-0.6,2.9-1.1,4.8-1.5,7.7L465.9,403.4z"/>
	<path class="st0" d="M487.9,399.7c9,0,10.5-14.5,10.5-16.5c0-5.8-3.5-7-6.2-7c-8.2,0-10.5,12.2-10.5,16.5
		C481.7,396.5,483.5,399.7,487.9,399.7 M491.9,371.8c7.4,0,12.7,3.8,12.7,11.7c0,6.2-2.9,20.6-16.9,20.6c-3.7,0-12.4-0.9-12.4-11.9
		C475.4,382.6,480.6,371.8,491.9,371.8"/>
	<path class="st0" d="M513.8,403.4c-2.2,0.1-3.8,0.1-6.1,0.2l-0.2-0.4c0.9-4.8,7.2-30.9,9.3-45.7l0.4-0.4c2.4-0.4,4.1-0.7,6.5-1.1
		l0.3,0.4c-3,12.8-9,41.2-9.8,46.7L513.8,403.4z"/>
	<path class="st0" d="M535.6,399.7c9,0,10.5-14.5,10.5-16.5c0-5.8-3.5-7-6.2-7c-8.2,0-10.5,12.2-10.5,16.5
		C529.4,396.5,531.2,399.7,535.6,399.7 M539.6,371.8c7.4,0,12.7,3.8,12.7,11.7c0,6.2-2.9,20.6-16.9,20.6c-3.7,0-12.4-0.9-12.4-11.9
		C523.1,382.6,528.3,371.8,539.6,371.8"/>
	<path class="st0" d="M580.9,377.1c0,0-1.8-0.1-2.3-0.1c-5.4,0-11.1,1-14.4,7.9c-1.4,3.1-1.6,5.5-1.6,6.8c0,6.2,4,7.6,7,7.6
		c3.3,0,5.6-1.7,6.9-2.9L580.9,377.1z M588.2,372.9c-1.7,6.7-3.1,12.9-4.6,19.6l-1.7,7.8c-2.1,9.9-3.8,18.2-16.8,18.2
		c-3.6,0-8.9-0.8-12.3-4.5v-0.5c0.9-1.4,1.5-2.4,2.4-3.8h0.5c1.6,2.1,4.6,4.2,9,4.2c8.9,0,9.6-8.2,10.2-10.2l0.6-2.4
		c-3.9,2.7-7.4,2.8-8.7,2.8c-7,0-10.7-5.4-10.7-11.5c0-1.5,0.2-6.5,3.4-11.4c5.6-8.6,14.5-8.6,21.3-8.6c3,0,7.1-0.1,7.1-0.1
		L588.2,372.9z"/>
	<path class="st0" d="M620.4,372.9c-7.1,11.5-23.8,39.5-26.1,44.6l-0.5,0.4h-2.7c-1.2,0-2.3,0-3.5,0.1l-0.2-0.4
		c1.7-2.6,7.6-11.7,9-14.3c-2.3-14.8-4.5-29.5-4.8-30.2l0.4-0.4c2.3,0,3.9-0.1,6.2-0.3l0.5,0.3c0.3,3.3,0.5,5.6,0.9,8.8l1.7,14
		l5.8-10.2c2.2-4,4.5-8,6.6-12.3l0.5-0.4c0.6,0.1,1.3,0.1,2,0.1c1.4,0,2.4-0.1,3.8-0.1L620.4,372.9z"/>
	<path class="st0" d="M244.6,476.5c-2.3,0.1-3.8,0.1-6,0.2l-0.3-0.4c2.1-9.7,0.9-4,5.8-26.2c-1.1,0-2.9,0.1-4.5,0.1l-0.4-0.4
		c0.4-1.5,0.7-2.5,1.1-4l0.5-0.4c1.5,0.1,2.7,0.2,4.2,0.2l0.9-4.3c1.3-6.4,2.4-11.7,10.8-11.7c2.1,0,3.5,0.4,4.3,0.5l0.3,0.5
		c-0.4,1.5-0.7,2.6-1.1,4l-0.5,0.4c-0.4-0.1-1.2-0.4-2.3-0.4c-3.7,0-4.3,2.4-5.4,7.2l-0.8,3.8h1c1.7,0,2.9,0,4.6-0.1l0.3,0.5
		c-0.4,1.2-0.7,2.4-1.1,3.8l-0.5,0.4c-1.9-0.1-3.3-0.1-5.2-0.1c-1.9,9.5-3.9,16.7-5.2,26L244.6,476.5z"/>
	<path class="st0" d="M268.3,472.9c9,0,10.5-14.5,10.5-16.5c0-5.8-3.5-7-6.2-7c-8.2,0-10.5,12.2-10.5,16.5
		C262.1,469.6,263.9,472.9,268.3,472.9 M272.3,445c7.4,0,12.7,3.7,12.7,11.6c0,6.2-2.9,20.6-16.9,20.6c-3.7,0-12.4-0.9-12.4-11.9
		C255.8,455.7,261.1,445,272.3,445"/>
	<path class="st0" d="M293.9,476.5c-2.3,0-3.9,0.1-6.2,0.1l-0.3-0.4c2.5-9.3,5.9-24.7,6.5-29.7l0.4-0.4c2.4-0.3,4.1-0.5,6.4-1
		l0.3,0.4c-0.5,1.7-0.8,3.3-1.3,5.2c0.9-1.5,3.5-5.9,7.7-5.9c1.3,0,2.1,0.3,2.7,0.7l0.2,0.5c-0.9,2.1-1.5,3.6-2.3,5.8l-0.6,0.2
		c-0.4-0.3-1.4-0.8-2.5-0.8c-1.6,0-5.3,0.8-7.1,8.6c-0.5,2.3-2.9,12.5-3.4,16.3L293.9,476.5z"/>
	<path class="st0" d="M358.5,476.5c-1.7,0-4,0.1-6.4,0.1l-0.2-0.3c1.8-7.4,3-12.5,4.6-20c-2.3-0.1-3.9-0.1-6.1-0.1h-6.2
		c-2.6,0-4.5,0-7.1,0.2c-1.6,6.5-2.9,13.2-4.2,19.7l-0.4,0.4c-2.4,0-4,0-6.4,0.1l-0.3-0.4c0.7-2.7,8-34,9.3-41.4l0.4-0.4
		c2.4,0,4-0.1,6.4-0.1l0.3,0.4c-1.7,7.1-1.5,6-3.9,16.6c0.2,0,2.4,0.1,4,0.1c5.3,0,11.3-0.1,15.3-0.2c2.1-9.5,2.8-13,3.4-16.4
		l0.4-0.4c2.4,0,4-0.1,6.4-0.1l0.2,0.4c-3.7,16.1-7.9,34-9.2,41.4L358.5,476.5z"/>
	<path class="st0" d="M393.1,476.5c-2.1,0.1-3.7,0.1-5.8,0.2l-0.3-0.4l0.7-2.8c-3.1,2.5-6.5,3.7-9.7,3.7c-7.3,0-8.9-4.9-8.9-8.1
		c0-2.1,0.5-4.4,1.5-9.1l1.3-5.5c0.6-2.6,1.1-4.5,1.7-8.2l0.4-0.4c2.2,0,3.7-0.1,5.9-0.2l0.3,0.4c-2.2,9-4.6,18.5-4.6,21.2
		c0,1.7,0.5,5.1,5.1,5.1c2.7,0,5.3-1.1,7.9-3.5c3.1-13.9,4.5-20.6,4.8-22.5l0.5-0.4c2.2-0.1,3.8-0.2,6-0.3l0.2,0.4
		c-1.8,7-6.1,26.2-6.7,30.2L393.1,476.5z"/>
	<path class="st0" d="M445.1,476.5c-2.1,0-3.7,0.1-5.8,0.1l-0.3-0.4c0.9-3.5,1.7-7.1,2.5-10.6l1.1-4.6c0.8-3.6,1.2-5.8,1.2-7
		c0-4-3.4-4.1-4.5-4.1c-3.7,0-6.7,2.1-8,3.3c-0.1,1.2-0.4,4.1-1.3,7.8l-1.4,6.2c-0.7,3-1.3,5.8-1.8,8.9l-0.4,0.4
		c-2.2,0-3.7,0.1-5.9,0.1l-0.3-0.5c1-3.6,4.6-18.3,4.6-21.9c0-3.9-3.3-4.2-4.5-4.2c-3.2,0-6.1,2.2-7.2,3.2l-2,8.9
		c-1.1,5.2-2,8.9-2.9,14.1l-0.4,0.3c-2.3,0.1-3.8,0.1-6,0.2l-0.4-0.4c2.3-8.7,5.8-24.8,6.4-29.7l0.3-0.4c2.4-0.3,4.1-0.6,6.3-1
		l0.3,0.4l-0.8,3c1.7-1.4,5.5-3.6,10.2-3.6c1.4,0,5,0.4,6.5,4.3c4.9-3.9,9.6-4.3,11.2-4.3c4.3,0,8.1,2.4,8.1,7.2c0,2-0.5,4.2-1,6.6
		l-1,4.5c-1.1,4.7-1.6,8.1-2.6,12.8L445.1,476.5z"/>
	<path class="st0" d="M468,472.3c1.8,0,4.8-0.8,6.9-3c1.5-6.1,2.7-12.3,4.3-19.1c-0.7,0-1.6-0.1-2.6-0.1c-5.7,0-11.5,1.8-14.5,8.9
		c-0.4,0.8-1.3,3.2-1.3,6C460.9,469.1,463.4,472.3,468,472.3 M479.5,476.5H478c-1.5,0-2.6,0.1-4,0.1l-0.3-0.4l0.4-2.4
		c-2.8,2.3-5.8,3-8.7,3c-7,0-11-5.2-11-11.6c0-4.4,1.9-8.5,2.8-10c4.9-8.7,13.7-9.7,20-9.7c2.8,0,8.9,0.1,8.9,0.1l0.3,0.4
		c-4.8,21-5.6,24.4-6.4,30.1L479.5,476.5z"/>
	<path class="st0" d="M513.9,476.5c-2.3,0-3.8,0.1-6.1,0.2l-0.2-0.4c0.8-4,1.7-6.7,2.5-10.6l1.4-6.8c0.2-0.9,0.6-2.8,0.6-4.4
		c0-4.4-3.9-4.6-5.1-4.6c-3.6,0-6.5,2.1-7.8,3.2c-1.7,7.7-3.4,15.3-4.8,23.1l-0.4,0.4c-2.3,0-3.8,0.1-6.1,0.2l-0.3-0.4
		c2-7.8,5.7-24.4,6.2-29.7l0.4-0.4c2.3-0.3,4-0.6,6.3-1.1l0.3,0.4l-0.8,3c4.3-3.3,8.6-3.6,10-3.6c1.8,0,8.6,0.3,8.6,7.9
		c0,2-0.8,6-2,11.5l-0.9,4.2c-0.6,2.9-1.1,4.8-1.5,7.7L513.9,476.5z"/>
	<path class="st0" d="M537,437.3c-2.3,0.3-3.9,0.5-6.2,0.8l-0.4-0.5c0.5-2,0.8-3.4,1.2-5.5l0.5-0.4c2.3-0.3,3.9-0.5,6.2-0.8l0.5,0.4
		c-0.5,2-0.9,3.4-1.4,5.5L537,437.3z M528.5,476.5c-2.3,0-4,0.1-6.3,0.2l-0.3-0.4c1.9-6.9,6.1-26.5,6.4-29.7l0.4-0.4
		c2.4-0.3,4.1-0.5,6.5-0.9l0.3,0.4c-0.3-0.1-5.2,22.6-6.6,30.6L528.5,476.5z"/>
	<path class="st0" d="M549.6,476.4c-2,0.5-3.5,0.5-4.3,0.5c-5.6,0-7.1-2.9-7.1-5.9c0-2.3,1.2-7.5,3-14.7l1.5-6.2h-1.2
		c-1.1,0-2,0-3.1,0.1l-0.3-0.4c0.4-1.4,0.7-2.4,1.1-3.9l0.4-0.3c1.6,0.1,2.6,0.1,4.1,0.1c0.7-2.7,1.1-4.7,1.6-7.4l0.4-0.4
		c2.3-0.5,3.9-0.9,6.2-1.5l0.3,0.4c-0.5,1.6-0.8,2.8-1.2,4.4l-1.1,4.6c2.4,0,4.1,0,6.5-0.1l0.3,0.4c-0.5,1.4-0.8,2.5-1.2,3.9
		l-0.4,0.4c-2.3-0.1-3.9-0.1-6.1-0.1l-3.2,13.4c-0.3,1.2-1.1,4.9-1.1,6.1c0,1.9,1.4,2.6,2.9,2.6c1.5,0,3-0.6,3.5-0.8l0.3,0.3
		c-0.5,1.5-0.8,2.6-1.3,4.2L549.6,476.4z"/>
	<path class="st0" d="M585.9,446c-7.1,11.5-23.8,39.5-26.1,44.6l-0.5,0.4h-2.7c-1.2,0-2.3,0-3.5,0.1l-0.2-0.4
		c1.7-2.6,7.6-11.7,9-14.3c-2.3-14.8-4.5-29.5-4.8-30.2l0.4-0.4c2.3,0,3.9-0.1,6.2-0.3l0.5,0.3c0.3,3.3,0.5,5.6,0.9,8.8l1.7,14
		l5.8-10.2c2.2-4,4.5-8,6.6-12.3l0.5-0.4c0.7,0.1,1.3,0.1,2,0.1c1.4,0,2.4-0.1,3.8-0.1L585.9,446z"/>
	<rect x="219.5" y="176.8" class="st0" width="36.8" height="132.8"/>
	<polygon class="st0" points="275.6,309.6 275.6,176.8 376.8,176.8 376.8,202.5 312.4,202.5 312.4,230 371.6,230 371.6,255.7 
		312.4,255.7 312.4,283.9 376.8,283.9 376.8,309.6 	"/>
	<polygon class="st0" points="397.4,309.6 397.4,176.8 498.5,176.8 498.5,202.5 434.2,202.5 434.2,230 493.4,230 493.4,255.7 
		434.2,255.7 434.2,283.9 498.5,283.9 498.5,309.6 	"/>
	<polygon class="st0" points="519.1,309.6 519.1,176.8 620.3,176.8 620.3,202.5 556,202.5 556,230 615.2,230 615.2,255.7 556,255.7 
		556,283.9 620.3,283.9 620.3,309.6 	"/>
	<path class="st0" d="M172.7,245.7c-1.9,2.6-14.1,18.8-28.3,33.1l0,0c-14.2,14.3-28.7,25.1-31.2,27l0,0c-2.7,2.2-7.1,2.1-9.8,0
		c-2.6-1.9-17.7-13.4-31.9-27.7l0,0c-14.3-14.2-25.7-29.3-27.7-31.9l0,0c-2.2-2.7-2.1-7.1,0-9.8c1.9-2.6,13.4-17.7,27.7-31.9l0,0
		c14.2-14.3,29.3-25.7,31.9-27.7c2.7-2.1,7.1-2.2,9.8,0v0h0c2.6,1.9,17.7,13.4,31.9,27.7l0,0c14.3,14.2,25.8,29.8,27.7,32.3l0,0
		C174.9,239.5,174.8,243,172.7,245.7 M192.7,235.5c-6.5-5.9-26.4-18.9-43.1-35.6c-16.6-16.6-29.8-36.7-35.6-43.2
		c-4.4-4.4-7-4.4-11.4,0c-5.8,6.4-19.1,26.6-35.6,43.2c-16.7,16.7-36.7,30.3-43.1,35.6c-4.4,4.4-4.4,7,0,11.4
		c6.4,5.7,26.6,19.1,43.1,35.7c16.7,16.7,29.8,36.7,35.6,43.1c4.4,4.4,6.9,4.4,11.4,0c5.7-6.4,18.9-26.4,35.6-43.1
		c16.6-16.6,36.8-30.3,43.2-35.7C197.1,242.4,197.1,239.9,192.7,235.5"/>
	<path class="st0" d="M106.5,255c-20.2,0-36.4-6.5-36.5-14.5c0-5.5,7.6-10.3,19-12.7l8.7,5.6c-8.9,1.6-14.9,4.8-14.9,8.6
		c0,5.3,12.2,9.6,27.3,9.6c13,0,27.5-4.3,27.5-9.6c-0.1-3.3-3.9-5.3-7.7-7.2l-5.2,1.2l-2.7-7.5l16.8,4.1l-3.8,1c0,0,6.4,3.3,7.8,7
		C145.4,248.6,127.9,255,106.5,255 M102.4,284l1.2-27.4c1.9,0.3,7.5,0.3,9.4,0l1.2,27.4C111.1,284.8,105.4,284.6,102.4,284
		 M108.1,194.8l9.7,28l-6.5,0l1.2,26.6c-3.2,0.6-5.6,0.4-8.7-0.1l1.1-26.6h-6.6L108.1,194.8z M168,237.2c-1.8-2.4-12.5-16.8-25.7-30
		l0,0c-13.2-13.2-27.2-23.9-29.6-25.7l0,0l0,0c-2.5-2-6.5-1.9-9.1,0c-2.4,1.8-16.4,12.4-29.6,25.7l0,0
		c-13.2,13.2-23.9,27.2-25.7,29.6c-2,2.5-2.1,6.6,0,9.1l0,0c1.8,2.4,12.4,16.4,25.7,29.6l0,0c13.2,13.2,27.2,23.9,29.6,25.7
		c2.5,2,6.6,2,9.1,0l0,0c2.4-1.8,15.8-11.8,29-25.1l0,0c13.2-13.2,24.5-28.3,26.3-30.7C170,242.9,170.1,239.7,168,237.2L168,237.2z"
		/>
	<path class="st0" d="M138.4,315h-1.3v-1.6h1c0.5,0,1.3,0.1,1.3,0.7C139.4,314.9,139.1,315,138.4,315 M140.9,314.3c0-1.5-1-2-2.7-2
		h-2.5v6.6h1.4v-2.8h0.7l1.5,2.8h1.7l-1.7-2.9C140.2,316,140.9,315.5,140.9,314.3 M138.2,320.4L138.2,320.4c-2.4,0-4.4-1.9-4.4-4.7
		c0-2.8,2-4.7,4.4-4.7c2.4,0,4.4,1.9,4.4,4.7C142.6,318.5,140.6,320.4,138.2,320.4 M138.2,309.5c-3.3,0-6.2,2.3-6.2,6.1
		c0,3.9,2.9,6.2,6.2,6.2c3.2,0,6.2-2.3,6.2-6.2C144.3,311.8,141.4,309.5,138.2,309.5"/>
</g>
</svg>
