<?xml version="1.0" encoding="UTF-8" standalone="no"?>
<!-- Generator: Adobe Illustrator 19.0.0, SVG Export Plug-In . SVG Version: 6.00 Build 0)  -->

<svg
   xmlns:dc="http://purl.org/dc/elements/1.1/"
   xmlns:cc="http://creativecommons.org/ns#"
   xmlns:rdf="http://www.w3.org/1999/02/22-rdf-syntax-ns#"
   xmlns:svg="http://www.w3.org/2000/svg"
   xmlns="http://www.w3.org/2000/svg"
   xmlns:sodipodi="http://sodipodi.sourceforge.net/DTD/sodipodi-0.dtd"
   xmlns:inkscape="http://www.inkscape.org/namespaces/inkscape"
   version="1.1"
   id="Capa_1"
   x="0px"
   y="0px"
   viewBox="0 0 49 49"
   style="enable-background:new 0 0 49 49;"
   xml:space="preserve"
   sodipodi:docname="youtube-svgrepo-com.svg"
   inkscape:version="0.92.4 (5da689c313, 2019-01-14)"><metadata
   id="metadata3865"><rdf:RDF><cc:Work
       rdf:about=""><dc:format>image/svg+xml</dc:format><dc:type
         rdf:resource="http://purl.org/dc/dcmitype/StillImage" /></cc:Work></rdf:RDF></metadata><defs
   id="defs3863" /><sodipodi:namedview
   pagecolor="#ffffff"
   bordercolor="#666666"
   borderopacity="1"
   objecttolerance="10"
   gridtolerance="10"
   guidetolerance="10"
   inkscape:pageopacity="0"
   inkscape:pageshadow="2"
   inkscape:window-width="1366"
   inkscape:window-height="745"
   id="namedview3861"
   showgrid="false"
   inkscape:zoom="10.530612"
   inkscape:cx="9.0687981"
   inkscape:cy="16.903101"
   inkscape:window-x="-8"
   inkscape:window-y="-8"
   inkscape:window-maximized="1"
   inkscape:current-layer="Capa_1" />

<g
   id="g3830">
</g>
<g
   id="g3832">
</g>
<g
   id="g3834">
</g>
<g
   id="g3836">
</g>
<g
   id="g3838">
</g>
<g
   id="g3840">
</g>
<g
   id="g3842">
</g>
<g
   id="g3844">
</g>
<g
   id="g3846">
</g>
<g
   id="g3848">
</g>
<g
   id="g3850">
</g>
<g
   id="g3852">
</g>
<g
   id="g3854">
</g>
<g
   id="g3856">
</g>
<g
   id="g3858">
</g>
<g
   id="g3887"
   transform="translate(-4.0454255,-0.69999953)"><path
     inkscape:connector-curvature="0"
     id="path3869"
     d="m 22.439277,33.44779 c -0.115733,-0.0224 -0.318716,-0.169424 -0.451074,-0.326718 l -0.240648,-0.28599 v -8.451569 -8.45157 l 0.277584,-0.277579 c 0.557232,-0.557225 0.297001,-0.681622 7.975645,3.812567 3.843568,2.24958 7.085783,4.185526 7.204919,4.302101 0.119138,0.116574 0.241491,0.365254 0.271898,0.552621 0.04795,0.295461 0.0129,0.38456 -0.264096,0.671437 -0.43086,0.44623 -14.399273,8.616605 -14.546244,8.508361 -0.0097,-0.0071 -0.11225,-0.03126 -0.227984,-0.05366 z m 6.724079,-5.824012 c 2.946185,-1.7252 5.367226,-3.167426 5.380089,-3.204943 0.02123,-0.06192 -10.383171,-6.206425 -10.743137,-6.344554 -0.140412,-0.05388 -0.153496,0.48426 -0.153496,6.313663 0,3.504911 0.03596,6.372564 0.07992,6.372564 0.04396,0 2.490437,-1.411529 5.436622,-3.13673 z"
     style="fill:#ffffff;fill-opacity:1;stroke:#ffffff;stroke-width:0.09511158;stroke-miterlimit:4;stroke-dasharray:none;stroke-opacity:1" /><path
     inkscape:connector-curvature="0"
     id="path3881"
     d="m 23.759302,24.434191 c 0,-4.454966 0.02936,-6.182641 0.105069,-6.182641 0.114653,0 3.270513,1.831236 7.711548,4.474743 l 2.831152,1.685231 -2.308865,1.370921 c -2.878959,1.709423 -8.056954,4.726192 -8.218373,4.788135 -0.09664,0.03708 -0.120531,-1.17926 -0.120531,-6.136389 z"
     style="fill:#ffffff;fill-opacity:1;stroke:#ffffff;stroke-width:0.09511078;stroke-miterlimit:4;stroke-dasharray:none;stroke-opacity:1" /></g></svg>